<svg width="4173" height="4429" viewBox="0 0 4173 4429" fill="none" xmlns="http://www.w3.org/2000/svg">
<path d="M2710.61 470.271C2998.12 552.669 3188.27 1188.24 3141.33 1945.22L3141.01 1950.29L2620.81 1917.97L2710.63 470.207L2710.61 470.271Z" fill="#1D1D1B"/>
<path d="M3567.5 2278.24C3590.63 1905.12 3376.49 1588.19 3089.2 1570.35C2801.91 1552.52 2550.26 1840.54 2527.12 2213.66C2503.99 2586.78 2718.13 2903.71 3005.42 2921.54C3292.71 2939.38 3544.36 2651.36 3567.5 2278.24Z" fill="#1D1D1B"/>
<path d="M3340.98 1778.75C3112.44 1695.21 2813.62 1938.1 2673.54 2321.27C2533.47 2704.44 2605.19 3082.78 2833.73 3166.31C3062.27 3249.85 3361.09 3006.96 3501.16 2623.79C3641.24 2240.63 3569.52 1862.29 3340.98 1778.75Z" fill="#1D1D1B"/>
<path d="M3391.72 2355.79C3230.63 2173.43 2852.13 2244.52 2546.3 2514.57C2240.48 2784.62 2123.14 3151.36 2284.22 3333.72C2445.31 3516.08 2823.81 3445 3129.64 3174.95C3435.46 2904.9 3552.8 2538.15 3391.72 2355.79Z" fill="#1D1D1B"/>
<path d="M3311.03 2068.29C3154.55 1789.61 2648.83 1776.34 2181.49 2038.65C1714.14 2300.97 1462.13 2739.52 1618.62 3018.2C1775.1 3296.88 2280.82 3310.14 2748.17 3047.83C3215.52 2785.52 3467.52 2346.96 3311.03 2068.29Z" fill="#1D1D1B"/>
<path d="M3271.43 2652.25C3163.22 2356.64 2655.05 2270.82 2136.41 2460.56C1617.77 2650.31 1285.04 3043.76 1393.25 3339.37C1501.46 3634.98 2009.62 3720.81 2528.27 3531.06C3046.91 3341.32 3379.63 2947.86 3271.43 2652.25Z" fill="#1D1D1B"/>
<path d="M2990.96 2454.37C2948.82 2129.22 2510.28 1917.98 2011.44 1982.56C1512.6 2047.13 1142.37 2363.07 1184.5 2688.22C1226.64 3013.37 1665.19 3224.61 2164.03 3160.04C2662.87 3095.46 3033.1 2779.52 2990.96 2454.37Z" fill="#1D1D1B"/>
<path d="M2433.14 3743.47L1050.09 3657.6C1011.89 3588.54 979.225 3513.95 952.744 3434.49C903.527 3289.56 874.271 3128.88 870.325 2959.94C861.385 2566.44 991.137 2213.54 1199.39 1987.86C1344.62 1828.85 1529.11 1732.39 1731.48 1727.99C1939.1 1723.22 2131.49 1815.59 2286.45 1974.28C2288.86 1977.06 2291.36 1979.79 2293.82 1981.89C2388.95 2081.94 2469.47 2207.29 2529.31 2350.26L2529.27 2350.93C2531.55 2356.28 2533.81 2361.7 2536.09 2367.05C2551.99 2405.95 2566.52 2446.13 2578.97 2487.4C2589.81 2523.36 2599.9 2560.63 2608.06 2598.42C2612.23 2615.68 2615.77 2632.23 2618.63 2650.04C2618.63 2650.04 2619.3 2650.08 2619.26 2650.76C2635.53 2736.76 2645.6 2826.94 2647.69 2919.94C2648.03 2935.63 2648.32 2951.99 2648.02 2967.72C2648.04 2978.17 2648.04 2988.68 2647.38 2999.09C2646.56 3033.71 2645.06 3068.29 2641.62 3102.69C2631.83 3218.48 2609.22 3329.53 2576.64 3433.43C2566.18 3464.78 2555.8 3495.54 2544.15 3524.92C2532.51 3554.24 2519.62 3582.88 2506.76 3610.84C2484.2 3657.85 2459.91 3702.06 2433.11 3743.6L2433.14 3743.47Z" fill="#1D1D1B"/>
<path d="M2489.13 3746.93L745.849 3638.69C789.668 3564.94 860.708 3494.77 952.762 3434.43C1066.59 3359.78 1210.99 3298.76 1375.53 3260.59C1427.94 3248.17 1482.84 3238.48 1538.92 3230.83C1723.48 3206.96 1899.54 3215.31 2049.25 3248.13C2138.28 3268.07 2217.58 3297.16 2284.66 3333.34C2325.81 3355.5 2362.17 3380.64 2392.5 3408.01C2437.78 3448.11 2470.91 3493.27 2490.02 3543.54C2497.89 3563.66 2503.77 3585.58 2506.34 3607.29C2506.27 3608.58 2506.84 3609.28 2506.77 3610.57C2511.75 3656.64 2505.7 3702.03 2489.17 3746.8L2489.13 3746.93Z" fill="#1D1D1B"/>
<path d="M1734.11 3700.07L123.075 3600.05C33.664 3259.08 151.246 2818.46 461.217 2460.45C675.368 2213.53 940.496 2050.85 1199.41 1987.79C1409.37 1934.78 1615.22 1946.92 1785.25 2031.38C1836.02 2056.11 1883.17 2087.16 1926.64 2124.51C1945.3 2140.03 1962.59 2156.83 1978.5 2174.15C2053.29 2254.66 2106.77 2352.15 2138.64 2459.99C2199.46 2670.36 2180.04 2920.87 2083.6 3167.93C2074.38 3190.27 2065.07 3213.2 2054.54 3236.08C2052.97 3239.92 2050.79 3243.67 2049.24 3248.2C1989.65 3375.93 1909.92 3501.09 1809.85 3617.77C1808.45 3619.66 1807.03 3620.86 1805.63 3622.75C1782.39 3649.44 1758.52 3675.42 1734.13 3700.01L1734.11 3700.07Z" fill="#1D1D1B"/>
</svg>
